<?xml version="1.0" standalone="no"?>
<!DOCTYPE svg PUBLIC "-//W3C//DTD SVG 20010904//EN"
 "http://www.w3.org/TR/2001/REC-SVG-20010904/DTD/svg10.dtd">
<svg version="1.0" xmlns="http://www.w3.org/2000/svg"
 width="100.000000pt" height="96.606574pt" viewBox="0 0 911.000000 943.000000"
 preserveAspectRatio="xMidYMid meet">

<g transform="translate(0.000000,943.000000) scale(0.100000,-0.100000)"
fill="rgba(0,0,0,0.025)" stroke="none">
<path d="M5561 9406 c-60 -20 -144 -79 -175 -124 -52 -76 -70 -132 -70 -217 0
-105 33 -182 110 -255 66 -62 129 -91 215 -97 321 -25 505 353 288 592 -70 76
-139 108 -243 112 -51 2 -97 -2 -125 -11z"/>
<path d="M2110 8584 c-73 -20 -130 -55 -174 -106 -102 -118 -118 -271 -45
-409 123 -231 458 -246 604 -26 138 208 29 486 -214 543 -70 17 -102 17 -171
-2z"/>
<path d="M249 5514 c-64 -22 -138 -80 -177 -138 -108 -162 -67 -382 92 -490
182 -123 423 -62 518 132 30 61 33 74 33 162 0 114 -19 163 -91 240 -68 73
-137 103 -243 107 -60 2 -100 -2 -132 -13z"/>
<path d="M5740 8523 c-138 -699 -576 -1195 -1220 -1381 -210 -61 -512 -80
-738 -46 -359 53 -690 219 -951 476 -79 79 -210 239 -247 303 -9 17 -20 12
-115 -60 -57 -43 -108 -81 -113 -86 -4 -4 28 -57 72 -118 188 -259 286 -528
313 -857 16 -187 2 -351 -44 -534 -85 -334 -218 -571 -452 -806 -143 -143
-261 -229 -433 -314 -264 -131 -610 -199 -887 -173 -60 5 -113 7 -117 4 -3 -3
-8 -41 -10 -83 l-3 -77 81 -98 c308 -372 657 -649 1109 -878 361 -184 738
-302 1155 -362 178 -25 691 -25 869 0 788 112 1477 442 2028 971 116 111 283
291 283 305 0 10 -25 21 -170 81 -63 26 -252 108 -420 182 -168 74 -367 159
-442 189 -76 30 -137 56 -135 59 1 3 47 49 102 102 l100 97 535 -140 c512
-134 815 -209 845 -209 8 0 88 69 179 154 191 178 262 235 352 282 83 43 134
45 163 8 26 -33 26 -49 0 -121 -28 -73 -79 -155 -133 -211 -32 -34 -346 -324
-352 -327 -1 0 14 -79 32 -175 75 -383 234 -1225 234 -1240 0 -17 -129 -150
-146 -150 -19 0 -73 124 -262 610 -118 302 -234 580 -244 580 -12 0 -165 -118
-270 -208 -508 -439 -888 -1060 -1061 -1737 -204 -795 -132 -1618 211 -2418
l47 -110 165 6 c1546 59 2829 1023 3278 2462 120 384 166 689 166 1110 0 290
-12 432 -60 675 -166 837 -654 1596 -1378 2139 -302 227 -722 437 -1074 538
-116 33 -133 40 -140 63 -66 185 -555 1546 -557 1548 -3 3 -114 31 -127 32 -4
0 -12 -26 -18 -57z"/>

</g>
</svg>
